<?xml version="1.0" encoding="UTF-8"?><svg id="a" xmlns="http://www.w3.org/2000/svg" viewBox="0 0 831.87 408.56"><path d="M773.27,103.85c-2.1,.22-4.2,.45-6.82,.73,.75-1.87,1.18-2.93,1.61-4l-.29-.25c-.4,.38-.9,.7-1.19,1.15-1.22,1.9-2.84,2.26-4.91,1.55-.88-.3-1.9-.21-2.78-.52-.82-.29-1.83-.68-2.25-1.34-1.46-2.31-4.53-3.14-6.67-1.26-2.32,2.04-4.62,4.22-6.41,6.71-1.6,2.23-3.22,2.37-5.38,1.41-1.08-.48-2.1-1.22-3.22-1.48-.98-.23-2.63-.37-3.04,.17-1.85,2.43-4.29,1.76-6.54,1.49-5.44-.65-10.19,.14-14.24,4.38-2.68,2.81-6.11,4.89-9.06,7.47-1.25,1.09-1.78,2.5,.08,3.86,2.12,1.55,4.22,2.7,7,2.41,.7-.07,1.96,.89,2.2,1.63,.43,1.34,.64,2.95,.3,4.29-.88,3.55,.41,7.45-1.9,10.79-.31,.45,.54,1.71,1.45,3.05-3.59,4.08-6.91,8.45-10.9,12.1-1.72,1.57-3.88,3.92-7.42,2.4-1.56-.67-3.85,.92-4.92,3.03-.55,1.07-1.34,2.16-2.3,2.86-1.67,1.22-1.83,2.52-.52,3.88,2.19,2.28,1.91,5.05,1.68,7.76-.14,1.6-.98,2.85-3.01,2.91-.89,.02-1.76,.73-2.63,1.13-.6,.28-1.39,.94-1.76,.75-.5-.25-.88-1.12-.95-1.76-.14-1.35,.05-2.74-.09-4.1-.09-.85-.38-2.29-.83-2.4-3.03-.71-3.36-2.94-3.19-6.16-1.86,1.17-3.2,2.02-4.42,2.79,1.14,.73,2.19,1.42,3.25,2.1-.98,1.05-1.96,2.1-2.95,3.15-.06,.06-.16,.09-.23,.14-4.1,2.43-4,2.38-1.73,6.54,1.31,2.4,2.44,4.94,3.32,7.54,1.09,3.21-.31,5.9-2.47,8.21-1.29,1.38-2.26,2.24,.29,3.62,1.09,.6,1.62,3.05,1.59,4.65-.02,1.4-1.18,2.78-1.85,4.17-1.11,2.31-3.13,2.57-4.72,.55-.44-.56-.7-1.27-1-1.93-.29-.65-.53-1.32-.63-1.58-5.83,2.57-11.51,5.07-17.39,7.66-.05,2.59-.21,5.61-3.71,6.45-1.14,.28-3.16,0-3.67-.77-1.28-1.9-1.37-4.14,1.19-5.75-2.39-1.22-3.6,.23-4.4,1.44-.7,1.07-1.12,2.41,.3,3.9,2.14,2.24,4.01,4.84,5.56,7.53,2.88,4.97,1.42,9.07-3.72,11.82-1.14,.61-2.19,1.52-3.05,2.49-1.99,2.25-3.77,2.27-5.71-.11-1.56-1.9-3.02-3.9-4.76-5.62-.75-.74-2.09-.89-3.16-1.3-.46,1.47-1.6,3.13-1.25,4.38,.87,3.16,2.84,5.67,5.94,7.31,3.1,1.63,4.1,5.86,2.95,9.98-.24,.87,.08,1.9,.17,3.23-6.11-2.53-7.09-8.3-9.32-13.14l-.66,.33c.16,.74,.33,1.48,.51,2.32-2.04-.73-4.91-4.83-4.97-7.02-.09-3.38,.1-6.78-.22-10.13-.21-2.2-1.14-4.33-1.84-6.84-1.34,.69-1.94,1.05-2.57,1.32-2.3,.97-4.78-.27-4.76-2.72,.05-4.78-4.03-7.16-5.81-10.85-.07-.15-.26-.27-.42-.34-.97-.43-7.6,2.11-8.21,2.99-.48,.71-1.1,1.5-1.85,1.81-1.78,.75-3.59,1.27-4.19,3.49-.12,.43-1.05,.59-1.52,.98-2.31,1.89-4.64,3.77-6.84,5.79-.41,.38-.21,1.39-.36,2.09-.4,1.87-.87,3.73-1.23,5.61-.12,.6-.18,1.35,.06,1.87,1.32,2.77,2.66,5.54,4.16,8.22,.82,1.47,.53,2.41-.87,3.12-.89,.45-1.78,1-2.72,1.17-.66,.12-1.8-.09-2.07-.54-1-1.68-1.73-3.52-2.56-5.3-4.01,1.56-4.95,.94-6.76-3.29-1.93-4.5-4.29-8.82-6.33-13.28-.82-1.78-1.6-3.68-1.86-5.61-.56-4.12-3.7-5.86-6.58-7.96-.76-.56-1.42-1.34-1.94-2.13-2.55-3.87-5.2-7.42-10.65-7.09-3.82,.23-7.66,.04-11.89,.04,.57,1.04,.87,1.66,1.24,2.23,2.12,3.26,1.98,6.02-.59,8.78-2.37,2.54-4.79,5.05-7.27,7.48-.54,.53-1.45,.69-2.19,1.01-3.71,1.59-7.47,3.07-11.12,4.8-3.66,1.73-7.21,3.7-10.81,5.56,.11,.31,.23,.61,.34,.92,3.52-.5,7.05-.98,10.57-1.5,3.3-.49,4.91,.98,3.78,4.2-1.15,3.28-3.09,6.29-4.77,9.37-1.33,2.44-2.77,4.82-4.2,7.2-.36,.6-.78,1.29-1.36,1.63-6.01,3.51-10.71,8.53-14.73,13.99-1.58,2.15-1.94,5.73-1.71,8.56,.46,5.6,1.84,11.13,2.59,16.72,.41,3.07-2.76,6.49-5.58,7.54-1.79,.67-3.18,2.41-4.74,3.69-2.2,1.8-3.02,3.83-2.09,6.8,1.13,3.63,.09,8-2.59,9.67-2.59,1.61-2.8,3.52-3.9,5.59-1.73,3.27-4.13,6.18-6.25,9.24-3.58,5.17-8.82,7.31-14.8,8.11-2.43,.32-4.88,.57-7.27,1.07-4.73,1-7.72-1.24-8.57-5.98-.5-2.8-1.55-5.58-2.8-8.15-2.35-4.85-4.41-9.67-4.99-15.16-.26-2.46-1.69-4.99-3.15-7.1-3.79-5.48-2.88-11.29-1.8-17.18,.05-.26,.13-.6,.32-.75,5.42-4.16,.89-9.09,.73-13.55-.08-2.41-2.69-4.77-4.25-7.08-1.32-1.94-3.1-3.64-4.07-5.73-.6-1.29-.64-3.42,.04-4.63,1.78-3.17,.22-5.65-1.16-8.14-.26-.46-2.05-.5-2.87-.13-1.82,.81-3.05,.41-3.81-1.28-1.9-4.18-6.03-3.61-8.84-2.57-3.98,1.48-7.64,3.85-12.34,2.83-2.12-.46-4.51,.45-6.78,.61-2.54,.17-4.81,.2-6.83-2.25-1.5-1.82-4.27-2.56-6.36-3.95-.88-.59-2.04-1.57-2.1-2.44-.18-2.48-1.59-3.94-3.27-5.44-1.63-1.44-3.36-2.91-4.51-4.71-1.83-2.87-2.32-5.92-.63-9.33,1.67-3.37,1.42-7.01,.11-10.65-.5-1.4-.34-3.34,.22-4.76,1.11-2.82,2.63-5.48,4.12-8.14,.73-1.3,1.74-2.45,2.84-3.95-2.73,0-4.93,.12-7.11-.06-.79-.06-1.52-.83-2.28-1.27,.61-.99,1.15-2.04,1.89-2.92,.25-.29,1.17-.34,1.56-.12,2.43,1.36,4.62,.28,6.68-.03,1.07,.37,2.29,1.28,3.17,1.02,2.21-.65,4.2-2.28,4.25-4.66,.09-4.63,2.63-7.28,6.15-9.66,1.03-.7,1.55-2.42,1.82-3.77,.06-.32-1.81-1.06-2.82-1.54-.31-.15-.74-.03-1.08-.14-1.61-.51-4.09-7.15-2.94-8.4,1.68-1.81,1.51-3.76,1.22-5.88-.69-5.06,.96-6.9,6.17-6.81,2.83,.05,5.66,.26,8.49,.43,1.6,.1,2.27-.66,2.46-2.21,.39-3.1-1.62-5.87-4.59-6.88-1.17-.4-1.99-1.79-2.97-2.73,1.05-.99,1.99-2.15,3.18-2.9,.72-.46,1.84-.29,2.77-.4l.02-.82c-1.35-.11-2.71-.12-4.03-.35-1.09-.19-2.62-.34-3.07-1.06-.4-.65,.39-2.05,.66-3.11,.08-.33,.17-.66,.45-1.7-2.38,.45-4.47,.53-6.28,1.28-2,.83-3.88,1.54-5.58-.09-1.47-1.41-1.58-3.15-.23-4.93,.26-.34-.14-1.3-.43-1.89-.82-1.7-.72-2.81,1.33-3.59,1.26-.48,2.3-1.6,3.39-2.48,.54-.43,.91-1.29,1.49-1.43,2.92-.68,2.33-2.04,1.06-3.9-1.4-2.06-.71-4.73,1.56-5.68,2.77-1.16,5.64-2.16,8.55-2.91,2.09-.54,3.1,1.55,2.04,4.25,2.72,.44,2.85,2.38,3.23,4.7,.41,2.52,2.2,4.79,2.89,7.31,.98,3.62,5.37,3.57,6.78,7.11,2.45-3.74,5.55-6.1,10.02-5.95-1.62-6.98,.27-10.1,6.86-11.26,.13,1.24,.12,2.5,.45,3.67,.19,.68,.86,1.57,1.45,1.69,.6,.12,1.65-.42,1.98-.98,.29-.49-.02-1.46-.29-2.12-.57-1.43-1.29-2.8-1.95-4.2-1.22-2.6-2.21-2.68-4.62-1.07-1.58,1.06-3.52,1.56-5.31,2.31-2.45,1.02-4.25-.36-4.69-2.33-.83-3.77-1.04-7.68-1.35-11.55-.04-.54,.69-1.27,1.22-1.72,2.17-1.78,4.18-4.11,6.69-5.02,2.2-.8,3.91-1.91,5.71-3.24,3.17-2.33,5.54-6.02,5.02-9.11-.63-3.76,.91-5.1,3.13-6.79,.99-.76,2.06-1.43,3.13-2.08,2.29-1.4,4.6-2.77,6.92-4.12,.96-.56,1.99-1.48,2.96-1.43,1.94,.09,3.69-.71,5.38-.9,4.4-.49,8.21-3.76,12.87-2.53,2.96,.78,5.95,1.47,8.91,2.25,.28,.07,.62,.48,.68,.78,.35,1.92,1.74,1.89,3.29,2.38,4.46,1.43,8.75,3.4,13.12,5.15,.5,.2,1.05,.26,1.55,.46,2.47,1,5.05,1.68,5.9,4.89,.63,2.39,.95,2.3,3.24,2.4-.51-1.97-.86-3.88-1.53-5.68-.48-1.29-1.16-2.42,.54-3.19,1.59-.71,3.24-1.48,4.6,.51,.34,.5,.85,1.22,1.32,1.25,2.26,.14,4.65-.09,4.09,3.93l1.02-.62c0-1.09-.16-2.21,.04-3.27,.23-1.2,.69-3.29,1.2-3.33,2.25-.19,4.55,.18,6.82,.49,.11,.01,.01,1.45,.01,2.6,.91-.29,1.87-.45,2.68-.88,1.78-.94,3.45-1.7,5.07,.29,.22,.27,.86,.44,1.21,.34,2.69-.75,5.36-1.57,7.66-2.26,.3-1.32,.34-2.92,1.1-4.03,.27-.4,2.29,.47,3.53,.66,.96,.15,1.94,.21,2.91,.18,2.91-.11,5.66-.43,8.07,2.16,1.27,1.36,3.66,1.67,5.55,2.46l.45-1.17c-.91-.38-1.81-.75-2.38-.99-.24-2.15-.75-4.14-.56-6.06,.12-1.16,1.29-2.24,2.07-3.31,.96-1.32,2.04-2.56,2.96-3.9,.6-.88,.86-2.02,1.55-2.81,3.07-3.52,4.36-3.56,6.89,.46,1.1,1.74,1.67,3.82,2.55,5.92,1.32-.92,4.03-.93,3.09-4.4l.71-.13c.71,.65,1.39,1.34,2.14,1.93,.64,.51,1.41,1.33,2.06,1.28,2.87-.25,5.71-.77,8.74-1.22,0-.04,.07-.64-.19-1.04-1.8-2.75-.1-3.72,2.1-4.89,2.29-1.22,4.49-2.27,7.11-1.82,.64-4,3.08-5.96,7.08-6.6,3.98-.63,7.87-1.87,11.83-2.61,2.49-.47,5.08-.86,7.58-.68,4.07,.29,7.33-1.77,9.97-4.01,2.25-1.92,4.74-1.75,7.05-2.62,1.28-.48,2.9-.14,4.35-.06,.59,.04,1.56,.27,1.66,.62,.9,3.03,3.59,2.35,5.67,2.8,2.99,.66,6.07,.98,9.03,1.76,4.47,1.18,5.58,4.95,2.46,8.39,.22,.38,.71,.84,.68,1.26-.26,3.58,2.3,3.16,4.49,3.22,1.64,.04,3.34-.27,4.92,.03,1.28,.24,2.4,1.23,3.65,1.76,1.45,.62,2.92,1.29,4.45,1.6,1.67,.33,2.99,.11,3.7-2.12,.28-.87,2.8-1.42,4.3-1.41,2.44,0,4.88,.62,7.33,.92,2.44,.3,3.81,1.55,3.96,4.07,.09,1.46,.09,2.97,.5,4.34,.26,.87,1.15,2.02,1.88,2.12,.68,.1,1.95-.89,2.22-1.66,.63-1.79,1.41-1.57,3.06-1.35,4.1,.54,8.27,.51,12.42,.65,.34,.01,.93-.44,1.01-.77,.8-3.01,3.42-2.83,5.53-2.84,4.47,0,8.94,.37,13.41,.65,3.11,.2,5.92,.78,8.31,3.33,2.41,2.57,5.41,3.5,9.43,2.59,3.56-.81,7.59-.01,11.33,.59,3.84,.62,7.58,1.88,11.35,3.39-1.36,.13-2.71,.25-4.07,.38,0,.2,.01,.4,.02,.59,3.84-.23,7.67-.46,11.51-.68,.99-.06,1.99-.12,2.99-.13,.36,0,.84,.34,1.05,.2,4.85-3.21,9.6,1.29,14.45,.17,1.57-.36,3.43-.46,4.91,.03,1.65,.55,2.97,2,4.52,2.91,2.83,1.64,5.77,3.12,8.6,4.77,1.37,.8,2.52,1.97,3.9,2.74,.96,.54,2.14,.96,3.21,.94,2.61-.04,4.87,.7,6.7,2.51,2.12,2.1,1.65,3.73-1.16,4.95-.85,.37-1.71,1.13-2.14,1.94-1.26,2.37-3.76,2.81-6.27,1.77-2.83-1.17-5.94-1.88-8.99-2.19-.83-.09-2.26,1.83-2.73,3.08-.56,1.48-.23,3.27-.53,4.87-.49,2.64-2.2,3.47-4.82,2.77-.77-.2-1.98-.08-2.52,.4-3.37,3.05-7.25,5.02-11.64,6.12-.66,.17-1.19,.92-1.84,1.05-1.28,.25-2.84,.74-3.88,.26-1.81-.84-2.93-.52-4.72,.29-2.41,1.1-3.92,2.63-5.62,4.54-1.56,1.75-2.47,3.12-2.07,5.42,.37,2.1,.12,3.95-3.03,3.69,.61,2.97-.82,4.9-2.28,7.2-2.79,4.4-6.2,7.52-10.94,9.62-2.1,.93-3.69,3.01-5.58,4.63-1.6-2.81-.44-6.13,1.84-7.37,.71-.38,1.29-1.87,1.18-2.75-.41-3.14-1.34-6.22-1.7-9.37-.59-5.29,2.22-8.88,6.37-11.71,1.35-.92,2.59-2.01,4.02-3.13,.16,.38,.37,.85,.6,1.4,1.26-1.1,2.4-2.09,3.73-3.25,.52,.42,1.24,1.01,2.26,1.84-2.63,1.5-2.49,3.35-1.54,5.76,.62,1.57,1.08,3.7-1.21,5.07-.59,.35-.46,1.92-.59,2.57,1.24-1.03,2.4-2.22,3.77-3.07,2.11-1.32,.8-3.11,.46-4.38-1.2-4.51,1.42-8.22,6.09-8.12,.73,.02,1.46,.15,2.19,.16,1.42,.02,1.79-.67,1.23-1.92,1.66,.04,3.46-.34,4.94,.19,2.94,1.06,4.51,.87,7.07-2.06-1.32,.56-2.25,1.04-3.23,1.33-.87,.26-2.09,.73-2.66,.35-2.18-1.45-4.1-.94-6.09,.22Zm-386.97,71.69c.89-.14,1.78-.26,2.66-.42,3.2-.58,6.38-1.21,9.59-1.75,.98-.16,2-.03,2.99-.13,3.14-.32,6.27-.85,9.42-.96,2.16-.07,3.76,.79,3.86,3.54,.08,2.31,.81,4.59,1.3,7.14,6.24-.72,10.14,6,16.5,5.38,.66-3.33,.71-3.17,3.83-4.21,3.52-1.17,6.39,.65,9.51,1.53,4.11,1.15,8.09,3.6,12.61,1.24,.8-.42,1.98-.24,2.97-.16,4.2,.36,5.58-.74,6.36-5.46-1.05,.24-1.99,.43-2.92,.66-2.66,.64-3.56-.03-3.95-2.76-.07-.47-.84-1.3-1.05-1.23-3.35,1.07-7.33-.76-10.27,2.62-1.88,2.17-5.55,1.97-7.7-.02-1.9-1.75-3.68-3.66-5.32-5.65-1.22-1.48-2.42-3.09-3.13-4.84-.85-2.09-1.98-2.39-3.44-1.01-1.43,1.35-2.48,3.09-3.83,4.53-1.26,1.33-1.96,3.78-4.29,3.31-1.73-.35-3.41-1.35-4.89-2.39-.64-.45-1.1-1.8-.92-2.56,.17-.71,1.23-1.35,2.03-1.74,.67-.32,1.54-.24,2.27-.34,.13-2.59-.05-4.55-3.05-5.04-1.01-.16-1.85-1.39-2.78-2.12-.8-.63-1.62-1.24-2.42-1.86-.36,1.24-.02,2.08,0,2.93,.04,1.51,.05,3.06-.23,4.53-.47,2.45-2.48,2.76-4.46,2.54-2.16-.24-2.46-1.9-2.17-3.7,.49-2.96,1.06-5.92,1.57-8.73-2.93,.34-5.54,.6-8.14,.98-.44,.06-.88,.59-1.17,1.01-.76,1.08-1.44,2.21-2.19,3.38,.11,.12,.26,.36,.48,.5,1.15,.71,2.32,1.39,3.48,2.08-1.04,1.07-2.03,2.2-3.14,3.19-.45,.4-1.17,.8-1.72,.74-3.94-.38-5.87,2.59-8.22,5.24Zm66.8-71.43c-1.01,0-1.75-.12-2.44,.02-2.23,.47-4.42,1.22-6.67,1.51-2.45,.32-5.32-.14-6.2-2.46-.94-2.47-.59-5.44-.68-8.19-.01-.36,.76-.72,1.12-1.12,1.69-1.88,3.43-3.72,4.99-5.69,.39-.49,.19-1.44,.26-2.17-.89,.14-2.07-.02-2.59,.5-.98,.98-1.37,2.56-2.37,3.49-1.85,1.73-3.88,3.3-5.98,4.73-3.34,2.27-3.95,6.15-1.44,9.26,1.17,1.45,1.41,3.14,.18,4.78-.87,1.16-1.75,2.31-2.97,3.93,1.06-.18,1.59-.42,2.05-.32,.94,.21,1.84,.6,2.75,.91-.52,1.15-.93,2.38-1.62,3.41-.22,.33-1.21,.14-1.84,.22-2.11,.25-5.12,3.64-4.99,5.34,2.61-.17,5.2-.38,7.79-.49,1.7-.07,2.31-.95,2.63-2.53,.71-3.51,1.62-6.98,2.39-10.22,1.22,0,2.34,.35,2.96-.06,2.72-1.8,5.63-1.94,8.68-1.48,2.31,.34,3.67-.56,3.99-3.35Zm6.56,46.82c-3.07,1.61-3.69,5.25-4.93,8.44-.09,.24,.85,1.28,1.28,1.26,1.86-.1,3.75-.28,5.54-.76,3.43-.92,6.59-1.87,10.11,.39,2.06,1.32,4.93,1.43,7.48,1.87,.56,.1,1.27-.72,1.91-1.11-.36-.53-.65-1.1-1.08-1.57-.67-.73-1.5-1.33-2.13-2.08-2.66-3.17-5.67-3.9-9.47-2.39-.87,.35-2.16,.71-2.81,.32-1.93-1.14-3.64-2.66-5.88-4.37Zm26.44,80.47l.8-.44c-.27-1.25-.22-2.71-.87-3.7-2.51-3.77-3.14-8.88-7.78-11.16-.2-.1-.37-.44-.4-.69-.46-4.05-2.8-7.14-5.14-10.26-1.16-1.54-2.19-3.18-3.28-4.77-.26,.15-.51,.31-.77,.46,.07,.59-.05,1.31,.25,1.73,2.26,3.23,1.23,7.77,4.32,10.69,.44,.42,.54,1.38,.5,2.07-.17,2.68,1.05,4.7,2.79,6.57,.72,.78,1.22,1.79,1.74,2.73,1.8,3.3,4.93,4.9,7.85,6.75Zm21.25-82.04c-2.92-.84-4.9,.33-6.62,2.03-.76,.75-1.81,1.59-1.93,2.5-.53,3.8,1.93,6.62,4.28,8.88,1.79,1.72,1.8,2.97,.91,4.66-2.08,3.95-1.79,4.86,2.5,6,.96,.26,2.72,.35,2.96-.1,.52-.95,.51-2.36,.31-3.51-.39-2.19-1.01-4.33-1.63-6.47-.37-1.28-.73-2.62-1.41-3.74-.92-1.51-2.14-2.83-3.24-4.23-1.3-1.67-.53-2.83,.92-3.86,.99-.7,1.96-1.44,2.93-2.17Z" style="fill:#0f0f0f;"/><path d="M214.92,210.32c-1.23-1.83-2.45-3.66-3.99-5.95l-.55,3.82c-5.26-.87-10.16-2.26-13.57-6.62-.8-1.02-1.1-2.48-1.44-3.79-.41-1.57-1.12-2.52-2.86-2.83-1.5-.27-2.92-.98-4.36-1.56-1.58-.63-2.83-.59-3.52,1.27-.67,1.82-2.13,2.53-3.94,2.19-2.1-.39-4.14-1.25-6.25-1.44-1.39-.13-2.94,.36-4.26,.94-2.7,1.19-4.99,2.61-4.67,6.37,.18,2.13-.96,4.35-1.19,6.56-.13,1.2,.23,2.55,.67,3.71,2.09,5.51,4.48,6.87,10.04,5.19,1.35-.41,2.27-2.3,3.32-3.56,.43-.52,.69-1.73,1.01-1.73,2.67,.04,5.4,.01,7.99,.58,1.34,.29,.76,5.42-.44,7.05-.8,1.08-1.32,2.44-1.67,3.75-.52,1.94,.63,2.61,2.42,2.67,1.34,.04,2.7,.12,4,.4,2.87,.62,3.74,1.89,3.5,4.89-.1,1.18-.35,2.35-.44,3.53-.39,5,2.55,7.89,7.57,7.5,.77-.06,1.56,0,2.49,0-2.05,3.21-2.57,3.31-7.51,1.62l1.34,1.81c-.89,0-1.75,.25-2-.04-2.6-3.01-6.7-4.1-8.91-7.86-1.56-2.66-4.23-4.96-7.79-5.73-2.19-.47-4.17-1.92-6.3-2.78-1.72-.69-3.57-1.77-5.28-1.63-4.71,.39-8.67-1.33-12.65-3.37-2.66-1.37-5.4-2.6-8.14-3.8-3-1.32-4.44-3.47-4.5-6.82-.05-2.99-3.68-7.47-6.44-8.22,.19,.8,.58,1.5,.46,2.09-.2,.97-.56,2.45-1.18,2.64-.88,.27-2.18-.24-3.08-.77-1.17-.69-2.17-1.7-3.15-2.66-.61-.59-1.45-1.34-1.48-2.05-.09-2.23-1.39-3.14-3.19-3.93-.94-.41-2.3-1.28-2.36-2.03-.23-2.95-2.25-4.97-3.25-7.44-1.35-3.34-3.52-5.63-6.03-7.87-.14-.12-.27-.32-.42-.33-4.57-.36-5.29-4.66-7.49-7.4-1.54-1.91-2.85-4-4.19-6.06-.38-.58-.66-1.28-.77-1.96-.48-3.06-1.14-6.12-1.21-9.2-.07-2.64,.51-5.3,.91-7.94,.43-2.84,.17-5.59-1.77-7.75-1.49-1.66-3.35-3.02-5.19-4.33-1.99-1.42-2.72-3.16-2.67-5.61,.02-1.15-1.08-2.33-1.67-3.5l-.72,.19-1,2.83c-1.7,.37-3.11,.31-4.26-1.54-.75-1.2-2.12-2.02-3.51-3.28-.02,.14,0-.21,.07-.53,1.08-4.61-.04-6.85-4.43-8.81-.5-.22-1.08-.36-1.47-.71-2.7-2.49-5.35-5.03-8.01-7.56-.19-.19-.37-.65-.48-.63-3.27,.63-4.81-2.87-7.68-3.2-1.44-.17-2.86-.54-4.29-.84-.36-.07-.74-.36-1.05-.28-3.16,.82-6.31,1.67-9.44,2.59-.75,.22-1.58,.61-2.09,1.18-.83,.92-1.89,1.99-2.06,3.11-.65,4.5-3.35,5.99-7.43,4.06-2.65-1.26-4.42,.67-6.19,2.24-1.58,1.4-3.11,2.88-4.81,4.11-.72,.52-1.83,.53-2.77,.7-.53,.1-1.15-.1-1.63,.09-3.46,1.45-6.99,2.77-10.27,4.54-1.6,.87-2.99,1.42-4.53,.54-.5-.29-.94-1.77-.66-2.11,1.01-1.27,2.18-2.59,3.58-3.36,3.74-2.05,7.64-3.81,11.44-5.77,.24-.13,.11-.99,.18-1.97l1.82,1.46c1.19-.7,2.39-1.41,3.37-1.99-.57-.72-.94-1.43-1.52-1.87-.91-.69-1.94-1.67-2.94-1.69-2.34-.04-3.73-.69-3.39-3.47-4.66,.35-6.38-3.11-8.24-6.18-1.25-2.05-1.08-4.05,1.15-5.73,2.81-2.12,2.6-3.77-.34-5.62-1.38-.87-2.86-1.67-3.97-2.82-.76-.79-1.33-2.15-1.26-3.21,.05-.69,1.29-1.5,2.16-1.9,2.18-1.01,4.45-1.82,7.12-2.88-.78-.57-1.55-1.16-2.35-1.69-.93-.62-1.94-1.14-2.84-1.81-.74-.55-2.02-1.65-1.91-1.85,.76-1.33,1.64-2.73,2.84-3.65,1.98-1.52,4.17-2.8,6.4-3.96,1.25-.65,2.76-.81,4.12-1.27,2.78-.93,5.54-1.93,8.32-2.86,1.18-.4,2.42-1.03,3.61-.97,6.65,.32,13.3,.68,19.92,1.33,3.67,.36,7.29,1.31,10.93,2,.26,.05,.69,.07,.75,.23,1.36,3.16,4.4,1.71,6.58,2.56,2.84,1.11,5.38-.28,8.03,.02,.82,.09,1.57,.72,3.04,1.45,1.03-.32,2.98-.94,5.14-1.62l-1.41-1.13c.3-.11,.57-.31,.78-.26,2.2,.54,4.29,.8,6.52-.26,.58-.28,1.9,1,2.88,1.56,2.36-3.04,2.96-3.13,6.23-1.02,.36,.23,.85,.58,1.2,.5,4.41-.95,8.45,.46,12.52,1.79,1.03,.34,2.15,.59,3.21,.55,.69-.03,1.66-.49,1.95-1.05,.23-.44-.28-1.37-.63-1.99-.71-1.26-1.54-2.46-2.7-4.29-1.6,1-3.12,2.4-4.9,2.91-1.39,.4-3.28,.07-4.62-.61-1.86-.95-3.54-2.39-5.03-3.88-.6-.6-.94-2.1-.62-2.86,1.19-2.82,3.15-5.32,2.71-8.7-.06-.48,1.06-1.46,1.77-1.62,1.49-.34,3.18-.7,4.6-.32,5.36,1.41,11.17,1.05,16.15,3.97,1.58,.93,3.11,1.95,4.65,2.96,1.72,1.13,8.95,.71,10.56-.72,2.47-2.2,5.22-3.18,8.55-2.44,2.1,.47,2.44,1.9,1.81,3.47-1.7,4.21,.3,9.26,5.19,11.06,.57,.21,1.38-.14,2.05-.31,.61-.15,1.18-.46,1.78-.61,.21-.05,.49,.16,.83,.29-.98,2.22-1.94,4.4-3.26,7.4,2.11-1.2,3.54-1.97,4.93-2.82,1.33-.81,2.62-1.7,4.42-2.88-.06-.64-.17-1.95-.32-3.59-3.85,1.24-6.51-.24-8.88-2.89-.87-.97-2.37-1.34-3.4-2.21-1.16-.97-1.74-2.05,.02-3.28,1.66-1.16,2.93-2.89,4.62-3.99,2.74-1.78,5.59-2.62,8.22,.45,.42,.49,1.44,.48,2.22,.71,.46-3.46-2.13-5.58-5.02-4.43-2.35,.94-4.07,.65-6.01-1.45-1.67-1.8-4.45-2.54-6.62-3.93-.91-.58-1.52-1.63-2.26-2.47,.87-.42,1.71-1.02,2.63-1.22,1.67-.36,3.39-.53,5.09-.69,1.14-.11,2.31-.16,3.45-.05,2.24,.22,4.21,.15,6.52-.74,2.45-.94,5.99-.93,8.34,.18,3.88,1.84,5.33,1.8,6.35-2.23,.06-.23,.31-.4,.21-.27,1.66,.55,3.56,1.81,4.45,1.3,1.04-.59,1.21-2.72,1.91-4.6-.95,0-1.74-.15-2.45,.03-3.7,.92-7.05,.19-10.16-1.92-.45-.3-1.23-.61-1.26-.96-.19-2.79-2.13-2.58-4.08-2.65-1.66-.06-3.36-3.08-2.96-5.01,.66-3.23,4.56-6.81,7.76-6.33,2.15,.32,4.11,1.93,6.14,2.98,1.56,.8,3.11,1.61,4.67,2.42l.51-.89c-1.98-1.87-3.96-3.75-6.69-6.33,2.56-.78,4.5-1.44,6.48-1.95,2.09-.54,4.21-.94,6.31-1.4,.97-.21,2-.77,2.89-.6,3.69,.72,6.58-1.34,9.83-2.31,3.35-1,6.98-1.47,10.48-1.48,8.74-.01,17.48,.33,26.21,.61,3.3,.11,5.79,1.91,7.93,3.81-3.44,2.17-6.4,4.84-9.86,5.98-3.33,1.1-6.07,2.9-8.98,4.59-.39,.23-.98,.36-1.13,.7-1.26,2.72-4.07,3.14-6.29,4.48-1.27,.76-2.04,2.29-3.17,3.33-1.83,1.69-3.58,3.58-5.72,4.77-1.79,.99-3.15,1.44-2.3,3.95,.29,.86-.72,2.23-1.28,3.28-.82,1.52-2.11,2.86-2.59,4.47-1.05,3.5-4.5,5.6-8.03,4.58-.95-.27-1.95-.38-2.94-.44-5.36-.35-10.72-.6-16.08-1-1.93-.14-3.7-.53-4.3-3.02-.19-.79-1.93-1.2-3.19-1.57,.58,1.79,2.64,3.28-.44,5.31,2.57,.76,4.46,1.18,6.23,1.9,.85,.34,1.97,1.16,2.1,1.91,.19,1.15,.67,2.81-1.28,3.4-.95,.29-1.85,.79-2.73,1.27-1.79,.98-2.64,1.97-.86,4,1.32,1.49,1.74,3.76,3.04,5.28,1.2,1.41,3,2.33,4.58,3.39,1.3,.87,2.68,1.6,3.99,2.46,.73,.48,1.38,1.1,2.06,1.65,.45-.89,1-1.75,1.3-2.68,.18-.56-.04-1.24-.07-1.56-2.1-.87-4.04-1.52-5.83-2.46-3.27-1.71-4.73-6.89-3.03-10.3,2.4-4.81,5.89-6.25,11.16-5.61,4.17,.51,8.46,.31,12.68,.14,3.74-.15,6.49,1.2,9.3,3.68,2.73,2.41,5.56,5.15,9.83,5.19,1.7,.02,3.38,1.15,5.34,1.26,2.78,3.14,5.56,6.28,8.45,9.55-.35,.38-.81,.87-1.7,1.83,3.87,2.07,7.53,4.09,11.26,5.97,1.35,.68,2.14,3.01,.89,4.08-2.64,2.27-5.49,4.3-7.96,6.2,0,3.11-.03,6.28,.01,9.44,.03,1.83-.82,2.59-2.53,2.07-4.87-1.49-9.77-2.93-14.53-4.73-1.25-.47-1.93-2.3-3.07-3.28-.86-.74-1.99-1.44-3.07-1.58-2.44-.3-4.94-.06-7.36-.42-.94-.14-1.72-1.3-2.58-1.99,.72-.81,1.29-1.89,2.19-2.38,1.08-.59,2.52-1.14,3.63-.9,2.92,.64,4.1-1.24,5.44-3.09,.37-.51,.82-.97,1.1-1.51,.42-.81,.72-1.68,1.07-2.53-1.09-.19-2.23-.66-3.26-.49-.91,.15-1.63,1.29-2.55,1.5-1.14,.26-2.73,.44-3.52-.16-.76-.57-.85-2.16-1.03-3.33-.16-1.04-.03-2.12-.03-2.73-1.81,.37-3.55,.68-5.25,1.09-1.82,.44-2.35,1.46-2.09,3.45,.16,1.24-.63,2.77-1.37,3.92-.83,1.29-3.17,3.01-2.97,3.33,1.23,1.92,2.74,3.91,4.65,5.06,2.21,1.33,2.61,1.59,.83,3.55-1.71,1.87-3.37,3.81-5.26,5.48-1.92,1.69-4.07,.89-4.99-1.48-.25-.65-.93-1.41-1.57-1.59-2.45-.69-4.94-1.4-7.46-1.6-1.19-.09-2.52,.86-3.69,1.51-1.02,.56-1.89,1.38-2.85,2.06-3,2.12-5.9,4.36-5.92,8.47,0,.78,.87,1.61,1.45,2.34,.73,.91,1.99,1.62,2.27,2.63,.54,1.91,1.57,2.49,3.43,2.88,2.41,.5,4.71,1.59,7.05,2.45,1.18,.43,2.32,.97,3.51,1.34,2.7,.85,5.52,1.42,8.1,2.53,1,.43,1.51,2.03,2.22,3.12,.62,.96,1.19,1.95,1.78,2.93l1.3-.42c0-1.93,.34-3.94-.08-5.78-.73-3.19,.13-4.51,3.4-4.18,1.07,.11,2.12,.43,4.14,.87-1.06-1.75-1.61-3.09-2.54-4.11-2.11-2.31-2.18-3.45-.09-5.8,.44-.49,.85-1.22,.86-1.84,.03-2.12-.19-4.24-.2-6.36,0-2.58,.68-2.95,3.19-2.48,1.74,.33,3.62-.04,5.32,.36,1.77,.42,3.67,1.08,5.03,2.21,1.71,1.42,3.37,2.28,5.59,2.39,.92,.05,1.8,.84,2.66,1.27,.85,0,2.01-.33,2.62,.1,.5,.36,.77,1.95,.41,2.42-.64,.82-1.84,1.19-3.18,1.97-.12,1.85,1.73,1.38,3.01,1.4,1.03,0,2.08,.24,2.43-1.68,.27-1.52,2.14-2.75,3.29-4.11,.9,.77,1.79,1.53,2.69,2.3,.61,.52,1.22,1.07,1.86,1.55,.28,.21,.93,.29,.94,.46,.22,3.12,3.17,5.28,3.6,7.74,.78,4.41,4.03,5.04,6.8,6.75,.91,.56,1.7,1.34,2.49,2.08,.51,.48,.83,1.37,1.39,1.53,2.39,.67,2.68,2.46,2.68,4.48,0,2.62,0,5.24,0,7.91,3.16-.14,4.76,1.13,5.85,4.05,2.63,7.03,2.39,7.53-4.98,7-2.08-.15-4.17,.29-5.78-1.67-.37-.45-1.54-.3-2.34-.34-1.55-.07-3.06-.27-3.28-2.16-.2-1.65-.62-3.35,1.64-4.34,1.88-.82,2.77-2.53,2.19-4.76-2.19,1.02-4.52,1.69-6.33,3.05-1.86,1.41-3.37,2.93-6.02,2.5-.44-.07-1.58,1.56-1.65,2.46-.07,.88,.67,2.49,1.3,2.63,1.53,.33,3.22,.07,4.83-.1,1.71-.18,4.77,1.43,5.15,3.04,.6,2.55-1.85,3.26-3.21,4.18-1.93,1.3-4.72,1.4-6.53,2.8-3.21,2.48-5.69,2.12-8.92-.04-1.96-1.31-5.74,1.92-5.66,4.53,.06,1.86-.61,2.51-2.38,3.23-5.24,2.12-10.73,7.42-9.94,13.91,.29,2.36-1.54,3.14-2.95,4.18-2.83,2.07-5.91,3.84-8.55,6.12-1.29,1.11-3.22,2.83-.9,5,.41,.38,.44,1.17,.63,1.78,1.26,4.05,1.26,4.09,5.38,3.98,1.54-.04,2.47,.36,3.17,1.92,1.02,2.29,2.56,4.35,3.67,6.61,.42,.85,.27,1.98,.38,2.99-.28,.06-.57,.13-.85,.19Zm-33.89-65.6c2.99,1.07,5.38,2.09,7.88,2.71,.64,.16,1.79-.8,2.29-1.52,.21-.3-.54-1.53-1.12-2.04-3.07-2.69-3.48-2.64-9.05,.85Z" style="fill:#0f0f0f;"/><path d="M246.25,360.96c-.46,1.89-1.02,3.67-3.37,5.11-1.99,1.22-3.25,4.23-3.99,6.7-.54,1.81-1.11,3.12-2.7,4.09-1.8,1.1-1.93,2.22,.07,3.43,1.97,1.19,2.03,2.74,.56,4.56-1.62,2-3.17,4.09-4.52,6.29-2.93,4.76,.2,10.57,5.81,11.11,1.41,.14,2.78,.62,4.17,.94l.26,.95c-1.56,.86-3.13,1.71-4.68,2.59-7.58,4.34-18.65,.58-22.68-7.3-2.48-4.85-1.92-9.79-1.82-14.83,.03-1.69-.22-3.39-.4-5.93,2.73-2.04,2.49-5.97,2.68-9.86,.1-2.03,.87-4.02,1.1-6.06,.64-5.48,.31-11.16,3.71-16.02,.48-.69,.58-1.74,.64-2.63,.39-6.65,1.94-13.1,3.05-19.63,.89-5.25,.61-10.73,.53-16.1-.02-1.07-1.33-2.8-2.35-3.07-4.48-1.2-7.6-4.25-10.89-7.14-.46-.41-.91-.92-1.15-1.47-1.64-3.75-3.12-7.57-4.86-11.27-.76-1.62-1.74-3.37-3.1-4.44-2.6-2.03-2.66-4.56-2.37-7.38,.18-1.71,.41-3.43,.35-5.13-.15-4.41,3.01-9.34,6.75-11.39,1.19-.66,2.31-2.85,2.18-4.22-.23-2.42-1.42-4.75-2.25-7.11-.23-.66-.58-1.27-.87-1.87,.62-1.1,3.47-.36,1.51-2.99,2.68,.76,3.92-.28,5.11-2.09,1.82-2.78,11.04-5.96,14.14-4.88,1.7,.6,3.1,1.99,4.71,2.9,.74,.42,1.65,.75,2.49,.75,4.1-.03,8.21-.07,12.3-.33,1.96-.12,2.46,.62,2.7,2.41,.14,1.02,1,2.11,1.83,2.85,1.89,1.67,3.93,3.18,5.98,4.67,.63,.46,1.46,.91,2.19,.9,8.32-.16,12.57,4.91,15.38,11.86,1.19,2.94,3.35,4.5,6.5,4.6,.63,.02,1.4-.13,1.87,.17,4.12,2.64,8.7,3.66,13.49,4.09,.53,.05,1.08,.27,1.53,.56,2.81,1.77,6.03,3.18,8.24,5.53,1.62,1.73,2.59,4.72,2.57,7.14-.01,2.06-1.67,4.23-2.92,6.13-1.72,2.61-3.78,5-5.63,7.53-.29,.4-.41,1.05-.36,1.55,.62,5.49-1.4,10.37-3.5,15.23-.63,1.46-1.09,3.19-2.17,4.23-1.36,1.29-3.47,3.02-4.91,2.75-2.98-.58-5.33,.91-7.11,2.15-2.21,1.54-5.09,3.42-4.66,7.3,.16,1.42-1.13,3.07-1.94,4.51-1.01,1.77-2.12,3.51-3.36,5.13-.81,1.06-2.09,1.76-2.87,2.84-.79,1.11-1.03,2.61-1.85,3.7-2.14,2.84-4.92,4.68-8.68,4.39,.7,5.82-1.78,8.74-7.64,9.67-1.58,.25-3.05,1.16-4.81,1.87Z" style="fill:#0f0f0f;"/><path d="M278.15,7.3h-2.87c5.74-3.67,11.66-6.33,18.61-4.77,.86,.19,1.88,.24,2.68-.04,8.05-2.8,16.36-2.9,24.65-1.93,3.81,.45,7.51,1.98,11.2,3.19,2.79,.92,5.48,2.11,8.57,3.32-.72,1.03-1.39,1.57-1.33,1.98,.15,.98,.63,2.68,1.04,2.7,2.03,.1,4.39,.34,6.06-.55,5.05-2.69,10.4-1.19,14.88,2.61-5.6,3.6-11.08,7.12-16.99,10.92,1.4,.38,2.74,.75,4.08,1.11l.28,.77c-1.24,.92-2.49,1.85-3.85,2.86l1.4,.53c-.48,2.36-2.18,1.75-3.89,1.15l.05,.94c1.57,.32,3.13,.63,5.02,1.01-.53,3.16-1.07,6.34-1.63,9.66,.94,.41,1.78,.72,2.57,1.12,1.64,.82,1.84,2.84,.51,4-1.81,1.59-3.54,3.28-5.31,4.92-.26,.25-.51,.54-.82,.7-3.73,1.99-4.83,4.78-3.41,8.7,1.24,3.43-.04,6.47-3.28,8.39-6.48,3.86-13.52,6.06-20.84,7.7-1.57,.35-2.88,2.09-4.17,3.33-2.35,2.24-3.4,5.89-7.51,6.14-3.08,.19-5.74,1.32-6.26,4.98-.06,.41-.37,.96-.72,1.13-3.31,1.68-4.05,5.16-5.67,8.01-.28,.5-.3,1.18-.32,1.78-.1,3.39-1.83,4.95-5.12,4.12-3.08-.77-6.06-1.93-9.06-2.99-.56-.2-1.11-.66-1.49-1.14-2.08-2.69-4.29-5.3-6.07-8.17-1.19-1.92-1.24-4.66-2.67-6.28-1.55-1.75-3.22-3.01-3.02-5.69,.08-1.08-1.22-2.35-1-3.33,.93-4.18,.22-7.64-2.04-11.48-2.01-3.41-3.39-7.99-2.95-11.81,.38-3.27-1.82-4.06-2.65-6.03-.24-.58-.41-1.23-.45-1.86-.11-1.55-.69-2.41-2.4-2.75-1.03-.21-2.25-1.11-2.72-2.03-.92-1.83-2.4-2.18-4.07-2.12-3.19,.1-6.41,.15-9.56,.61-5.21,.77-8.56-2.57-12.42-5-2.13-1.34-2.82-2.38-.71-3.82-1.22-1.15-2.38-2.24-4.1-3.86,2.41-.55,3.88-.89,5.35-1.22,1.24-.28,2.73-.23,3.68-.92,2.35-1.72,4.95-1.5,7.56-1.7,1.06-.08,2.34-.56,3.05-1.31,1.51-1.59,.87-2.95-1.3-3.26-1.07-.15-2.13-.34-3.72-.6,.62-1.04,.88-2.09,1.5-2.39,1.9-.92,3.98-1.48,5.92-2.33,1.89-.83,3.85-1.65,5.53-2.82,6.73-4.69,13.92-6.22,21.84-3.7,.48,.15,1.32,.29,1.52,.05,1.8-2.2,4.13-1.36,6.36-1.35,.86,0,1.73-.38,2.6-.59l-.1-.59Z" style="fill:#0f0f0f;"/><path d="M685.65,296.27c.64-1.97,1.17-3.87,1.91-5.69,.27-.65,.99-1.46,1.61-1.56,1.77-.29,3.65-.57,5.4-.29,3.08,.49,6.12,1.32,9.13,2.18,.68,.2,1.55,1.07,1.64,1.73,.3,2.22,.28,4.48,.39,6.86,1.09,.66,2.32,1.57,3.7,2.17,.62,.27,1.96,.18,2.19-.21,.74-1.26,1.88-3.02,1.49-4.08-1.22-3.29,1.28-5.21,2.29-7.59,.56-1.33,2.05-1.01,2.78,.34,.93,1.74,1.34,4,2.7,5.24,3.26,2.99,3.4,7.55,6.04,10.76,.34,.41,.77,1.03,1.17,1.04,3.66,.13,4.56,3.12,6.05,5.58,.61,1,1.64,1.74,2.47,2.62,.47,.49,1.18,.95,1.32,1.53,.68,2.82,2.55,3.44,5.42,2.95,.7,5.55,1.36,11.02,.03,16.53-.32,1.33-.86,2.66-.9,3.99-.04,1.65-1.06,2.34-1.97,3.46-1.64,2.04-3,4.6-3.6,7.14-1.33,5.68-1.54,5.98-7.2,6.2-1.32,.05-2.6,1.27-3.58,1.78-3.27-.3-6.56-.17-9.58-1-3.53-.97-7.32-2.03-9.27-6-2.51,1-4.15,.75-5.85-2.12-1.5-2.53-4.43-5-7.21-5.77-3.19-.88-6.24-3.52-10.08-1.92-2.26,.94-5.14-.5-7.23,1.61-.17,.17-.67,.12-.74,.28-1.58,3.94-5.02,3.14-8.14,3.32-1.15,.07-2.44,.33-3.4,.93-3.25,2.02-6.52,1.3-9.78,.33-1.98-.59-3.05-2.01-2.56-4.2,1.03-4.63,.51-8.96-2.14-13.01-.85-1.29-1.54-2.72-2.02-4.18-.32-.98-.22-2.13-.18-3.2,.07-1.82,.38-3.63,.34-5.44-.06-2.85,1.62-4.15,3.92-5.29,4.11-2.02,8.23-3.86,12.84-4.48,.68-.09,1.5-1.03,1.8-1.77,1.38-3.34,3.2-6.24,6.4-8.17,1.06-.64,1.74-1.97,2.82-2.47,2.36-1.09,4.76-3.16,7.49-.54,.37,.35,1.18,.24,2.08,.39Z" style="fill:#0f0f0f;"/><path d="M764.27,288.62c-1.68,.74-3,1.33-4.47,1.98,.98,1.08,1.62,1.78,2.26,2.49l-.43,.49c-2.26-.95-4.52-1.9-6.78-2.85,.06-.33,.12-.65,.19-.98,1.01-.31,2.03-.61,3.83-1.15-2.53-.71-4.62-1.11-4.26-3.76,0-.02-1.51-.46-1.64-.26-1.6,2.45-2.73,.8-3.85-.39-2.17-2.33-4.25-4.76-6.47-7.04-.35-.36-1.59-.49-1.88-.19-2.77,2.84-6.23,3.64-10.1,3.32,.25,2.54,1.47,3.01,3.52,2.75,1.01-.13,2.11,.49,3.61,.88,.86-.1,2.31-.29,3.76-.39,.07,0,.39,1.1,.26,1.19-.89,.59-1.87,1.04-3.08,1.67,.24,3.13-2.17,3.13-4.68,3.28-4.01,.25-7.03-1.54-9.73-4.21-1.41-1.39-2.59-2.62-4.19,.11-.53,.9-2.79,1.3-4.14,1.1-3.39-.52-6.74-1.43-10.05-2.38-.64-.18-1.29-1.18-1.49-1.92-.34-1.27-.27-2.65-.51-3.96-.12-.62-.56-1.66-.86-1.66-.8,0-1.74,.28-2.38,.77-.61,.47-.75,1.56-1.37,2-.89,.63-2.02,1.19-3.04,1.19-.4,0-1.23-1.67-1.08-2.44,.14-.74,1.24-1.34,1.99-1.9,.41-.3,.97-.38,1.65-.63-2.36-.8-4.49-1.52-6.62-2.24l.25-.63-3.4,1.51-.74-.76c4.04-.8,.33-3.82,2.07-5.31-.58-.57-1.38-1.04-1.66-1.73-.28-.68-.32-1.77,.06-2.32,.27-.39,1.45-.39,2.15-.22,2.37,.57,5.08,2.35,6.98,1.7,3.12-1.07,5.68,.33,8.45,.43,5.58,.21,10.61,2.42,15.53,5.06,2.84,1.53,5.14,4.58,8.91,3.97,1.54-.25,3.07-.71,4.5-1.33,.23-.1-.01-1.64-.31-2.4-.13-.33-1.2-.22-1.44-.59-.66-1-1.12-2.15-1.65-3.23,1.07-.03,2.33-.43,3.17,0,2.09,1.07,4.13,2.35,5.93,3.85,1.45,1.22,2.52,2.87,4.73,2.75,.32-.02,.81,.18,.96,.44,2.7,4.57,7.82,4.82,11.95,6.85,.9,.44,1.54,1.51,2.19,2.37,1.13,1.47,2.18,3.01,3.42,4.73Z" style="fill:#0f0f0f;"/><path d="M450.32,26.58c2.48,.79,5.01-.86,6.86,2.52-2.34,0-4.18,.07-6.01-.01-3.91-.19-4.52,.31-4.23,4.11,.19,2.51-2.16,3.09-3.43,3.63-1.42,.6-3.5-.31-5.28-.61-.33-.06-.61-.55-.91-.54-2.83,.1-3.01-1.72-2.58-4l-.69-.18c-1.29,1.75-3.03,3.33-3.79,5.29-1.9,4.91-4.33,4.81-8.2,1.68-4.37-3.53-7.51-8.1-11-12.38-1.44-1.77-.1-4.27,2.62-4.71,1.16-.19,2.39-.2,3.55-.04,5.25,.72,9.82-.95,14.15-3.73,.62-.4,1.49-.5,2.26-.53,2.11-.11,4.23-.2,6.34-.11,1.15,.04,2.59,1.01,3.36,.58,2.26-1.24,3.98,.52,5.94,.7,1.1,.1,2.48,1.19,3.02,2.21,.62,1.18,.84,2.78-.95,3.78-.57,.32-.67,1.46-1.04,2.35Z" style="fill:#0f0f0f;"/><path d="M532.46,46.55c-1.16,.39-2.59,.47-3.44,1.22-3.6,3.16-7,6.53-10.51,9.79-1.14,1.06-1.31,1.75,.01,3.01,1.3,1.24,2.03,3.07,3.11,4.79-2.86,2.24-5.96,1.3-8.68,.53-2.17-.61-4.09-2.31-5.94-3.76-1.01-.79-.76-1.91-.48-3.33,.56-2.83,2.07-4.81,3.81-6.83,2.02-2.34,3.7-5.05,6.02-7.03,3.75-3.19,7.63-6.45,11.98-8.63,3.05-1.53,6.96-1.69,10.5-1.75,2.99-.05,6.05,.74,8.95,1.6,.65,.19,1.42,2.71,.99,3.26-1.1,1.41-2.75,2.49-4.37,3.37-1.21,.66-2.69,.82-4.05,1.19-1.12,.31-2.26,.93-3.35,.86-2.02-.14-3.34,.47-3.95,2.53l-.6-.82Z" style="fill:#0f0f0f;"/><path d="M671.03,247.87c-.41,.26-1.45,.93-2.79,1.78v-3.46c-2.41,4.3-2.46,4.33-6.96,1.98-1.57-.82-3.06-1.78-4.83-2.82,2.34-3.21,4.37-6.16,6.57-8.98,1.53-1.95,2.33-3.79,.9-6.18-2.19-3.69,0-7.1,1.24-10.36,.88-2.31,5.2-2.19,6.06,.14,.74,1.98,.91,4.41,.55,6.5-.29,1.66-.24,2.42,1.4,2.72,2.12,.39,3.18,1.65,3.87,3.71,1.38,4.13,3.28,8.08,4.53,12.24,.36,1.22-.49,3.08-1.3,4.31-.91,1.37-1.88,3.7-4.09,2.65-1.77-.85-3.14-2.53-5.15-4.23Z" style="fill:#0f0f0f;"/><path d="M501.57,290.67c3.07,1.35,5.31,6.57,4.13,10.07-1.18,3.51-2.12,7.1-3.29,10.61-1.27,3.82-2.5,7.66-4.08,11.35-1.09,2.55-3.79,2.18-6,2.27-1.76,.07-3.11-.66-3.64-2.63-.54-1.97-1.69-3.82-1.94-5.81-.17-1.36,.8-2.84,1.18-4.29,.34-1.28,1.08-2.72,.78-3.86-1.13-4.3,.85-6.93,3.99-9.45,3.1-2.48,5.84-5.41,8.88-8.27Z" style="fill:#0f0f0f;"/><path d="M716.5,163.86c2.49,3.65,.15,6.83-1.75,10.19-.52,.91-.25,2.29-.26,3.46-.01,2.43-1.25,3.73-3.61,3.96-2.98,.29-5.87,.41-8.58,2.24-1.36,.92-3.72,.94-5.47,.58-2.73-.56-4.09,1.03-5.34,2.71-.66,.88-.7,2.77-2.22,1.84-1.5-.92-3.42-2.1-2.71-4.55,.1-.34,.27-.75,.54-.94,3.22-2.25,5.97-5.59,10.2-5.74,2.53-.09,4.01-1.23,5.45-2.95,.63-.75,1.33-1.53,2.17-1.99,3.87-2.16,5.27-4.82,4.83-9.5-.11-1.18-.36-2.38-.23-3.54,.07-.6,.79-1.51,1.31-1.59,2.21-.31,3.04-1.75,3.48-3.64,.76-3.29,.92-3.23,3.65-1.41,1.26,.84,3.05,.86,4.6,1.26,.81,.21,1.61,.43,2.41,.64-.29,.92-.33,2.08-.93,2.71-.94,.99-1.89,1.79-2.65,3.07-.84,1.41-3,2.03-4.9,3.19Z" style="fill:#0f0f0f;"/><path d="M539.28,18.6c-1.76-.48-3.36-.76-4.37,1.41-.21,.46-1.44,.54-2.22,.62-1.53,.16-3.07,.2-4.56,.28-.56,3.2-3.43,4.17-6,2.28-.59-.43-1.4-.79-2.11-.8-2.26-.04-4.67,.46-5.37-2.88-2.46,3.83-4.38,4.01-8.16,1.6-.91-.58-3.05-.8-3.51-.26-2.58,3.08-5.52,.95-8.28,.89-.53-.01-1.04-.68-1.59-1-.94-.55-1.89-1.06-2.84-1.58,.79-1.01,1.43-2.2,2.4-3.01,1.96-1.62,3.98-3.51,6.68-1.01,.34,.31,1.34,.27,1.82,0,3-1.64,5.56-1.24,7.77,1.73,.38-.98,.67-1.72,1.04-2.68,3.15,3.42,4.58-.81,6.85-1.39,1.97-.5,3.75-1.75,5.72-2.32,.89-.25,2.03,.36,3.05,.57-.29,.89-.55,1.79-.9,2.65-.23,.56-.59,1.07-1.06,1.9,2.36,.17,4.11-.01,5.39-2.01,.48-.75,1.43-1.37,2.3-1.68,1.54-.55,7.48,1.89,7.93,3.34,.32,1.02-.02,2.26-.06,3.4l.09-.08Z" style="fill:#0f0f0f;"/><path d="M131.49,40.4c1.19-1.48,2.29-2.86,3.88-4.84l-.22,2.19c.48-.04,1.07-.29,1.32-.09,2.63,1.98,4.94,4.48,8.44,4.97-.14,.76-.05,1.96-.48,2.18-1.39,.73-2.95,1.17-4.47,1.61-2.84,.81-5.82,1.26-8.53,2.38-2.98,1.23-4.83,1.27-7.36-.78-.46-.38-1.12-.54-1.72-.71-3.15-.9-6.7-1.17-9.36-2.84-2.51-1.58-4.85-2.21-7.62-2.33-.38-.02-1.19-1.64-.98-1.92,1.41-1.94,3.02-3.75,4.64-5.53,.25-.28,.85-.33,1.3-.35,2.59-.11,5.19-.24,7.78-.24,1.68,0,3.12,.27,3.79,2.37,.22,.71,2.06,.91,3.36,1.41l-.17,1.87c2.25,.23,4.36,.45,6.42,.67Z" style="fill:#0f0f0f;"/><path d="M333.56,89.89c-.96-.96-2.17-1.77-2.81-2.9-.99-1.78,.54-2.75,1.72-3.77,2.12-1.82,3.76-2.96,7.07-1.24,2.36,1.23,6.17,1.37,9.05-.78,2.43-1.82,5.23-1.07,7.18,.29,1.66,1.15,2.83,3.58,3.29,5.65,.23,1.02-1.4,2.89-2.63,3.71-2.56,1.7-5.39,3-8.14,4.39-3.1,1.57-6.21,2.81-8.93-.75-.24-.31-.8-.46-1.24-.51-2.57-.33-4.1-1.55-3.59-4.61l-.98,.53Z" style="fill:#0f0f0f;"/><path d="M218.94,212.08c.82,.76,2.23,2.05,3.81,3.5,2.19-.56,6.69,1.39,8.07,3.81,.86,1.51,.19,2.84-1.53,3.21-1.53,.33-3.04,1.13-4.55,1.13-1.89,0-3.76-.73-5.66-.93-2.12-.22-3.84-.71-3.67-3.43h-2.99c.06,.58,.26,1.06,.11,1.42-.49,1.22-1.1,2.39-1.66,3.59-1.49-.92-3.01-1.8-4.42-2.83-.17-.12,.09-1.28,.46-1.6,1.65-1.43,.96-2.32-.39-3.47-3.33-2.83-3.91-2.58-7.85-1.37-1.96,.6-4.52-.62-6.72-1.27-.14-.04,.02-2.62,.68-3.55,2.2-3.07,8.85-3.71,12.09-1.75,3.38,2.04,6.94,3.82,10.55,5.4,.64,.28,1.94-.94,3.66-1.85Z" style="fill:#0f0f0f;"/><path d="M658.85,250.82c.61,3.41,1.53,6.29,1.49,9.16-.03,2.14-1.25,4.28-2.06,6.37-.57,1.46-1.47,2.8-2,4.28-.51,1.42-.94,2.44-2.84,2.04-1.67-.36-3.43-.38-5.16-.42-4.45-.11-7.73-2.37-9.21-6.68-.5-1.47-2.16-2.67-.68-4.72,1.66-2.3,4-2.59,6.19-2.42,4.13,.31,9.12-2.19,10.45-5.82,1.08-2.97,1.71-3.15,3.81-1.77Z" style="fill:#0f0f0f;"/><path d="M616.94,264.18c-1.67-.58-2.91-1.02-4.69-1.64-.01-.04-.4-.75-.3-1.37,.6-3.57-1.37-5.6-4.04-7.41-1.18-.79-2.52-2.13-1.18-3.6,1.11-1.22,2.37-1.26,3.82,.43,2.32,2.71,5.09,5.08,7.88,7.31,1.71,1.37,3.91,2.1,5.72,3.36,.87,.61,1.43,1.73,1.95,2.72,1.1,2.09,1.61,4.7,5.05,4.1,.42-.07,1.63,1.84,1.68,2.87,.06,1.34-.78,2.69-1.07,4.08-.34,1.68-2.3,2.93-3.7,1.99-3.77-2.55-7.4-5.29-11.12-7.92-1.95-1.38-2.38-2.86,0-4.93Z" style="fill:#0f0f0f;"/><path d="M632.81,277.9c1.45,.33,2.73,.32,3.66,.88,4.48,2.69,9.42,1.1,14.11,1.74,1.27,.17,2.51,.57,3.76,.89,.7,.18,1.38,.52,2.09,.6,4.05,.48,8.39,1.97,12.09,1.02,3.36-.86,7.49,.5,10.42-2.82,.49-.55,3.31,.95,5.37,1.6-.64,1.11-.76,1.64-1.08,1.85-3.32,2.11-6.62,4.27-10.06,6.17-.8,.44-2.19,.14-3.18-.19-2.89-.97-5.65-2.38-8.59-3.12-2.44-.62-5.08-.38-7.59-.81-1.5-.26-2.9-1.07-4.35-1.64-.42-.16-.82-.42-1.25-.48-4.02-.6-8.03-1.2-12.06-1.72-2.84-.37-2.86-.32-3.34-3.97Z" style="fill:#0f0f0f;"/><path d="M614.79,28.36c-6.1-.49-11.59-1.93-16.59-4.99-.49-.3-.98-1.47-.77-1.89,.91-1.81,1.91-3.62,3.18-5.19,2.64-3.28,9.91-3.58,13.17-.57,1.72,1.58,3.74,3.19,4.61,5.23,.65,1.51-.04,3.83-.69,5.58-.32,.86-1.91,1.24-2.92,1.84Z" style="fill:#0f0f0f;"/><path d="M709.32,39.36c4.17-1.05,7.63,1.35,11.37,2.27,3.33,.82,6.75,1.27,10.13,1.86,.72,.12,1.45,.1,2.18,.18,1.7,.19,3.68,.59,3.38,2.64-.11,.79-2.37,1.86-3.57,1.77-2.45-.19-4.83-1.18-7.28-1.66-1.07-.21-2.26-.16-3.34,.07-2.09,.43-4.1,1.32-6.2,1.56-2.52,.29-5.12,.31-7.64,.05-1.61-.17-3.14-1.05-4.7-1.65-.97-.37-1.96-.74-2.88-1.23-.62-.34-1.12-.89-1.67-1.35,.47-.55,.88-1.48,1.42-1.57,1.87-.3,3.54-.49,4.92-2.23,.61-.77,2.53-.51,3.86-.71Z" style="fill:#0f0f0f;"/><path d="M771.8,308.41c.18-.06,.43-.16,.69-.21,.86-.16,1.73-.3,2.59-.45-.52-.63-1.08-1.22-1.55-1.88-1.37-1.94-2.72-3.9-4.03-5.89-.18-.26-.24-.81-.09-1.05,1.48-2.34,1.87-5.53,5.17-6.8,1.62,4.74,3.2,9.38,4.79,14.01,.14,.42,.44,.79,.59,1.21,.33,.91,.61,1.83,.92,2.74-1.05,.16-2.1,.38-3.16,.47-.51,.04-1.03-.17-1.54-.26-.1,.3-.25,.52-.2,.61q2.72,4.49-2.33,6.11c-.59,.19-1.18,.49-1.67,.88-1.55,1.22-2.82,2.02-2.69-1.07,.02-.37-.52-.8-.87-1.15-1.05-1.06-2.33-1.95-3.13-3.17-.5-.76-.29-1.99-.4-3.01,1.53,.02,3.08-.09,4.59,.11,.71,.1,1.33,.81,1.99,1.24,.1-.79,.21-1.58,.32-2.44Z" style="fill:#0f0f0f;"/><path d="M789.81,364.9c-1.15,1.8-1.9,3.4-3.04,4.67-2.38,2.65-4.66,5.35-5.37,8.93-.57,2.89-3.25,3.16-5.12,4.16-2.17,1.16-3.42-1.32-4.98-2.38-1.88-1.27-2.43-2.77-.94-4.81,.9-1.24,1.51-2.69,2.28-4.02,.22-.38,.55-.94,.87-.97,2.41-.18,4.5-.88,6.78-1.9,1.89-.84,3.72-1.61,4.89-3.14,1.38-1.8,2.62-1.45,4.62-.55Z" style="fill:#0f0f0f;"/><path d="M796.55,363.45c.27-1.05,.55-2.1,.82-3.16l-.32-.23c-1.3,1.61-2.59,3.22-3.83,4.76-1.39-2.48-2.52-4.5-3.65-6.52-.34,.15-.68,.29-1.02,.44,.42,1.25,.85,2.49,1.27,3.74-2.05,.74-2.01,.74-2.05-1.33,0-.42-.63-.81-.68-1.25-.09-.74-.17-2.06,.12-2.17,1.95-.73,1.52-2.08,.98-3.36-.52-1.25-1.47-2.34-1.85-3.61-.53-1.75-.82-3.61-.93-5.43-.02-.41,1.1-1.2,1.74-1.25,.56-.04,1.33,.59,1.75,1.12,1.92,2.42,3.62,5.05,5.7,7.32,.78,.86,2.36,1.21,3.62,1.35,1.95,.23,2.99,.82,2.13,2.92-.95,2.32-1.95,4.61-2.92,6.92-.3-.09-.6-.18-.9-.26Z" style="fill:#0f0f0f;"/><path d="M726.62,363.16c.43-.87,.6-1.72,1.11-2.09,.59-.42,1.51-.6,2.24-.51,.41,.05,1.03,.86,1.03,1.33,.05,3.07,.25,6.2-.27,9.19-.17,.97-2.33,2.15-3.64,2.22-1.62,.08-4.11-.4-4.78-1.51-1.86-3.09-3.02-6.61-4.36-10-.24-.61-.03-1.39-.03-3.07,3.2,1.64,5.89,3.01,8.69,4.44Z" style="fill:#0f0f0f;"/><path d="M151.12,33.81l1.38-2.31c-1.58,0-2.75,.13-3.88-.03-1.62-.23-3.69-.08-3.34-2.82,.04-.35-.52-.91-.93-1.16-2.37-1.42-1.22-2.03,.49-2.79,1.88-.83,3.6-1.84,5.37,.25,.39,.46,1.4,.33,2.03,.67,2.49,1.34,5.04,2.63,7.38,4.21,1.35,.91,.92,2.91-.75,3.38-2.4,.67-4.91,.96-7.37,1.4l-.37-.81Z" style="fill:#0f0f0f;"/><path d="M666.15,271.29c-.56,2.45-.91,3.99-1.29,5.64-1.89-1.5-3.22-7.1-2.39-9.22,.47-1.18,1.22-2.38,1.26-3.59,.1-3,2.3-3.17,4.3-3.39,1.33-.15,2.72,.43,4.07,.38,1.31-.05,2.6-.48,4.16-.8-.51,2.17-1.51,3.18-3.62,3.01-1.63-.13-3.29-.19-4.91,0-1.63,.19-2.41,1.16-1.58,2.94,1.86-.2,3.68-.39,5.5-.59-2.39,2.46-3,4.5-.54,7.06,.49,.51-.12,2.08-.22,3.17-.72-.52-1.5-.96-2.13-1.56-.74-.71-1.36-1.56-2.61-3.05Z" style="fill:#0f0f0f;"/><path d="M715.58,130.17c-1.57-1.38-2.64-2.33-3.94-3.48,1.69-.51,2.91-.71,3.97-1.23,2.01-.97,3.4-.58,3.39,1.63,0,3.56,1.19,6.72,2.22,10,.65,2.06,.69,4.09-2.04,5.15-.63,.25-.83,2-.9,3.08-.04,.61,.62,1.27,1.25,2.45-1.27,.31-2.47,1-3.28,.68-.7-.27-1.2-1.65-1.34-2.61-.27-1.93-.24-3.91,.26-5.92,.16,.61,.33,1.23,.66,2.49,1.83-4.78-.14-8.75-.27-12.25Z" style="fill:#0f0f0f;"/><path d="M121.47,32.03c2.58-1.17,4.84-2.15,7.07-3.21,.96-.46,1.84-1.06,2.76-1.61,1.8-1.08,3.54-.77,5.05,.49,1.6,1.34,1.39,2.8,.21,4.51-2.71,3.9-5.65,4.84-9.95,2.75-1.69-.82-3.27-1.86-5.14-2.93Z" style="fill:#0f0f0f;"/><path d="M617.88,32.43c.53-3.58,2.69-6.21,4.95-8.66,.54-.59,2.43-.54,3.34-.08,2.07,1.05,4.07,2.36,5.79,3.91,1.21,1.09,.88,2.88-.79,3.17-4.33,.76-8.74,1.12-13.29,1.66Z" style="fill:#0f0f0f;"/><path d="M800.53,310.29c-1.34-.59-2.67-.8-3.41-1.57-2.41-2.54-2.02-4.29,1.03-6.25,.75-.48,1.34-1.21,2.04-1.78,1.38-1.13,4.08-.76,4.74,.85,.26,.64-.31,2.35-.65,2.39-2.89,.34-2.96,2.46-3.22,4.55-.06,.52-.3,1.02-.54,1.83Z" style="fill:#0f0f0f;"/><path d="M174.69,34.31c-1.34,.22-2.74,.77-4.02,.58-3.05-.47-6.39-.68-8.36-3.53-.54-.79-.15-2.23-.18-3.37,1.08-.02,2.5-.49,3.18,.03,1.59,1.2,4.41,1.1,4.6,4.01,.02,.28,1.24,.54,1.92,.7,.92,.21,1.86,.3,2.8,.44,.02,.38,.04,.77,.07,1.15Z" style="fill:#0f0f0f;"/><path d="M256.66,393.23c-1.72,3.85-4.69,5.81-7.58,5.24-.77-.15-1.72-1.61-1.79-2.53-.07-.86,.84-2.5,1.47-2.58,2.43-.31,4.92-.12,7.91-.12Z" style="fill:#0f0f0f;"/><path d="M680.52,264.93c.52-2.24,.9-4.3,1.54-6.28,.19-.58,1.1-1.17,1.74-1.26,.4-.06,1.08,.76,1.37,1.31,1.61,3.08-.37,5.73-1.26,8.45-.16,.49-2.14,.95-2.24,.79-.57-.92-.81-2.04-1.15-3.02Z" style="fill:#0f0f0f;"/><path d="M774.1,126.71h-3.32c-.22-.73-.25-1.84-.63-1.97-4.04-1.42-1.74-4.32-1.82-6.25,1.19,.4,2.3,1.07,3.43,1.1,1.98,.06,2.51,.95,2.36,2.74-.11,1.42-.02,2.85-.02,4.39Z" style="fill:#0f0f0f;"/><path d="M333.62,231.31c-.87-1.24-1.56-2.17-2.2-3.13-.34-.51-.65-1.04-.9-1.6-.4-.89-1.28-2.25-.98-2.61,.65-.79,1.9-1.07,3.09-1.65,.42,1.58,.66,2.51,.98,3.71,.67-.38,1.16-.85,1.68-.9,.61-.05,1.49,.09,1.8,.49,.32,.42,.37,1.46,.07,1.87-.92,1.23-2.07,2.27-3.54,3.82Z" style="fill:#0f0f0f;"/><path d="M799.66,63.92c1.88-3.45,6.19-4.44,8.47-2.09,1.03,1.06,1.19,2.01-.28,2.81-1.42,.77-6.63,.36-8.2-.72Z" style="fill:#0f0f0f;"/><path d="M372.34,95.91c2.13-.19,2.89,1.06,2.75,2.81-.14,1.66-.65,3.24-2.88,3.17-2.58-.08-2.37-1.96-2.45-3.68-.08-1.88,.75-2.69,2.58-2.31Z" style="fill:#0f0f0f;"/><path d="M388.97,101.97c-.92,1.77-1.35,3.09-2.2,4.04-.63,.71-1.79,1.18-2.75,1.25-.35,.03-1.25-1.47-1.14-2.15,.21-1.32,.66-3.25,1.56-3.64,1.18-.5,2.89,.25,4.52,.49Z" style="fill:#0f0f0f;"/><path d="M830.79,93.9c-.97,.55-2.02,1.65-2.89,1.53-1.99-.27-3.91-1.15-5.85-1.78,.46-.71,.94-2.04,1.38-2.03,2.36,.05,4.72,.43,7.08,.7l.28,1.58Z" style="fill:#0f0f0f;"/><path d="M687.63,195.16c-.22,1-.14,1.88-.51,2.12-1.81,1.21-2.57,2.86-2.81,4.97-.05,.42-1.2,.95-1.87,.99-.54,.03-1.56-.55-1.6-.95-.11-.91-.08-2.26,.48-2.74,1.4-1.19,3.42-1.68,3.61-4.03,.01-.17,1.55-.22,2.7-.37Z" style="fill:#0f0f0f;"/><path d="M600.73,240.19c-.14-2.28-.45-4.58-.34-6.85,.03-.68,1.14-1.5,1.93-1.87,.43-.2,1.76,.36,1.78,.65,.07,.88-.27,1.8-.51,2.68-.28,1.02-.64,2.02-.94,3.04-.24,.83-.45,1.68-.67,2.52l-1.25-.18Z" style="fill:#0f0f0f;"/><path d="M246.71,234.8c-.52-2.76-1.14-5.68-1.56-8.64-.08-.58,.65-1.27,1.01-1.92,.52,.52,1.25,.94,1.52,1.57,.55,1.31,1.03,2.7,1.2,4.1,.11,.92-.23,1.97-.64,2.84-.39,.84-1.12,1.52-1.52,2.04Z" style="fill:#0f0f0f;"/><path d="M238.17,221.99c-1.3,.56-2.58,1.45-3.92,1.54-.69,.05-2.01-1.25-2.11-2.06-.22-1.82,1.13-3.05,2.86-2.77,1.18,.19,2.2,1.41,3.29,2.16-.04,.37-.07,.75-.11,1.12Z" style="fill:#0f0f0f;"/><path d="M179.42,267.47c-2.84,.18-4.15-.9-4.03-2.76,.06-.87,2.16-2.44,2.3-2.33,1.39,1.05,2.56,2.39,3.79,3.65-.88,.62-1.76,1.24-2.05,1.44Z" style="fill:#0f0f0f;"/><path d="M729.74,149.75c1.8-.71,3.64-1.35,5.39-2.18,.65-.31,1.05-1.1,1.61-1.61,.47-.42,1.32-1.17,1.49-1.05,.67,.47,1.32,1.16,1.6,1.91,.11,.3-.68,1.02-1.15,1.46-.71,.68-1.47,1.31-2.25,1.92-1.23,.97-2.49,1.9-3.74,2.84l-.46-.59c1.3-1.01,2.6-2.01,3.89-3.02l-.59-1.1c-1.96,.44-3.93,.89-5.89,1.33l.09,.08Z" style="fill:#0f0f0f;"/><path d="M829.89,129.7c-1.1,.15-2.2,.42-3.3,.4-.45,0-1.16-.56-1.27-.98-.09-.38,.38-1.07,.79-1.37,.94-.67,1.95-1.3,3.02-1.72,.67-.26,1.72-.4,2.2-.05,.45,.32,.66,1.46,.47,2.08-.26,.84-1,1.54-1.53,2.3l-.38-.67Z" style="fill:#0f0f0f;"/><path d="M686.67,282.73c1.11-.99,2.15-2.09,3.38-2.91,.56-.38,1.7-.51,2.22-.18,.63,.4,1.15,1.38,1.19,2.14,.03,.57-.73,1.64-1.22,1.7-1.88,.2-3.8,.08-5.7,.08,.04-.28,.09-.56,.13-.83Z" style="fill:#0f0f0f;"/><path d="M711.09,54.33c.09-1.53,.15-2.74,.22-3.97,1.35-.65,5.77,.71,6.1,2.02,.11,.45-.44,1.51-.8,1.56-1.81,.26-3.65,.28-5.52,.39Z" style="fill:#0f0f0f;"/><path d="M432.13,51.39c-2.35-.47-3.25-1.59-2.96-3.25,.11-.64,1.56-1.66,2.1-1.5,1.33,.39,2.49,1.37,3.72,2.1-.95,.88-1.9,1.76-2.85,2.64Z" style="fill:#0f0f0f;"/><path d="M774.15,290.99c-2.61,.05-4.76-.09-5.27-2.43-.13-.61,1.87-2.42,2.85-2.4,3.16,.09,1.53,2.89,2.42,4.83Z" style="fill:#0f0f0f;"/><path d="M159.84,25.17c-1.42-1.48-2.66-2.36-3.2-3.56-.19-.41,1.37-1.61,2.13-2.46,1.06,1.1,2.22,2.13,3.1,3.36,.14,.2-.95,1.28-2.02,2.66Z" style="fill:#0f0f0f;"/><path d="M789.44,132.78c-1.37-.72-2.73-1.14-3.66-2.03-.59-.57-.54-1.81-.77-2.75,1.06-.07,2.36-.56,3.14-.12,1.59,.91,2.36,2.48,1.29,4.89Z" style="fill:#0f0f0f;"/><path d="M800.18,133.63c-.55,0-1.2,.19-1.61-.04-.68-.4-1.2-1.07-1.79-1.63,.71-.38,1.38-.88,2.14-1.11,.57-.18,1.24-.02,1.87,0,.76,.03,1.68-.17,2.2,.2,.32,.22,.31,1.61-.05,1.96-.49,.47-1.45,.46-2.22,.63-.17,.04-.36,0-.54,0h0Z" style="fill:#0f0f0f;"/><path d="M728.71,271.14c-1.4-.33-2.83-.59-4.18-1.07-.16-.06-.12-1.7,.3-2.05,.74-.62,2.33-1.37,2.68-1.07,.91,.8,1.34,2.15,1.97,3.27-.26,.31-.51,.61-.77,.92Z" style="fill:#0f0f0f;"/><path d="M148.58,35.56c-2.22,1.39-6-.02-5.95-1.61,.02-.51,1.55-1.54,1.89-1.36,1.36,.71,2.52,1.79,4.07,2.98Z" style="fill:#0f0f0f;"/><path d="M742.59,292.4c-1.24-1.49-2.21-2.49-2.92-3.66-.14-.23,.77-1.09,1.2-1.65,1.25,.95,2.5,1.91,3.75,2.86-.51,.61-1.01,1.22-2.03,2.45Z" style="fill:#0f0f0f;"/><path d="M569.51,29.83c.19,3-.12,3.16-4.59,2.4-.74-3.06,.08-3.49,4.59-2.4Z" style="fill:#0f0f0f;"/><path d="M206.7,94.09c.8-2.12,3.93-3.27,5.1-2.2,.28,.25,.52,.9,.38,1.17-.24,.49-.75,1.16-1.19,1.19-1.32,.1-2.67-.08-4.29-.16Z" style="fill:#0f0f0f;"/><path d="M515.17,234.56c-1.2,1.13-2.04,1.92-2.89,2.72-.52-.59-1.6-1.4-1.47-1.72,.42-1.03,1.29-1.88,1.98-2.8,.64,.49,1.28,.98,2.37,1.81Z" style="fill:#0f0f0f;"/><path d="M689.04,271.97h-9.52c0-.27,0-.55,0-.82,3.19,.84,6.34-1.56,9.54-.36,0,.4-.01,.79-.02,1.19Z" style="fill:#0f0f0f;"/><path d="M528.16,55.95c-.51,.84-1.11,2.41-1.52,2.37-1.17-.13-2.27-.92-3.4-1.45,.09-.41,.18-.82,.27-1.24,1.3-.18,2.6-.35,3.89-.53l.76,.85Z" style="fill:#0f0f0f;"/><path d="M539.19,18.68c2.72-.72,2.56,1.27,2.59,2.87,.04,2.18-1.46,1.55-2.98,1.29,.16-1.43,.32-2.84,.48-4.25l-.09,.08Z" style="fill:#0f0f0f;"/><path d="M675.14,203.63c.87,1.27,1.87,2.17,1.7,2.63-.25,.69-1.33,1.46-2.07,1.47-.58,0-1.64-1.07-1.65-1.67,0-.63,.99-1.27,2.01-2.42Z" style="fill:#0f0f0f;"/><path d="M814.72,130.01h5.39c-2.64,2.65-3.6,2.72-5.39,0Z" style="fill:#0f0f0f;"/><path d="M819.21,101.78c.79,1.05,1.58,2.1,2.38,3.15-.76,.23-1.96,.88-2.19,.63-.73-.8-1.1-1.93-1.61-2.93l1.42-.85Z" style="fill:#0f0f0f;"/><path d="M207.08,98.24c-1.37,.91-2.21,1.64-3.18,1.99-.27,.1-.95-.92-1.44-1.43,.78-.72,1.48-1.59,2.39-2.08,.28-.15,1.12,.73,2.23,1.52Z" style="fill:#0f0f0f;"/><path d="M773.57,118.4c-1.24-.77-2.52-1.5-3.7-2.36-.19-.14-.15-.96,.07-1.23,.21-.27,.93-.46,1.18-.31,1.17,.74,2.26,1.62,3.38,2.45-.31,.48-.63,.97-.94,1.45Z" style="fill:#0f0f0f;"/><path d="M404.6,24.63c-1.07,.91-1.71,1.87-2.24,1.81-.59-.07-1.48-1.07-1.47-1.66,0-.61,.84-1.53,1.48-1.71,.44-.12,1.17,.77,2.23,1.55Z" style="fill:#0f0f0f;"/><path d="M599.47,16.03c-1.34,0-2.68,.02-4.02-.07-.04,0-.07-1.51-.02-1.52,1.33-.15,2.66-.19,4-.25l.04,1.84Z" style="fill:#0f0f0f;"/><path d="M807.81,131.91c.88-.09,1.77-.3,2.64-.24,.65,.04,1.28,.43,1.92,.66-.61,.4-1.19,1.09-1.83,1.14-.97,.07-1.97-.3-2.95-.48,.07-.36,.15-.72,.22-1.08Z" style="fill:#0f0f0f;"/><path d="M331.67,172.22c-1.39,.71-2.18,1.46-2.75,1.32-.6-.15-.98-1.15-1.46-1.78,.55-.4,1.13-1.17,1.64-1.13,.67,.06,1.29,.75,2.57,1.59Z" style="fill:#0f0f0f;"/><path d="M677.76,256.43c-.25-1.41-.01-2.64,1.76-2.81,.37-.03,1.25,1.16,1.16,1.29-.57,.84-1.34,1.54-2.04,2.29-.29-.26-.58-.51-.88-.77Z" style="fill:#0f0f0f;"/><path d="M811.31,374.49c-.54-.88-1.09-1.77-2.04-3.33h3.27c-.11,1.13-.23,2.25-.34,3.38l-.88-.05Z" style="fill:#0f0f0f;"/><path d="M546.86,25.85c-1.71-.27-3.02-.47-4.73-.73,2.78-2.17,4.01-1.99,4.73,.73Z" style="fill:#0f0f0f;"/><path d="M699.26,51.78c1.59-2.93,1.72-2.94,4.43-.77-1.24,.22-2.47,.43-4.43,.77Z" style="fill:#0f0f0f;"/><path d="M729.66,149.67c1.29,2.36,.99,2.92-2.07,3.29,.35-.7,.64-1.27,1.05-2.09l-1.71,.33-.2-.66c1-.26,2-.52,3-.78l-.09-.08Z" style="fill:#0f0f0f;"/><path d="M323.87,168.15c.92,1.02,1.45,1.61,1.98,2.19-.55,.45-1.08,1.21-1.66,1.26-.49,.04-1.37-.69-1.47-1.2-.1-.5,.56-1.16,1.16-2.25Z" style="fill:#0f0f0f;"/><path d="M637.44,257.48c-.77-1.42-1.3-2.16-1.53-2.98-.07-.24,.91-1.11,1.06-1.04,.7,.37,1.55,.87,1.81,1.53,.16,.42-.61,1.21-1.34,2.49Z" style="fill:#0f0f0f;"/><path d="M603.5,244.21c1.69,1.04,1.9,2.22-.4,4.17-.28-1.65-.49-2.82-.69-3.99l1.09-.18Z" style="fill:#0f0f0f;"/><path d="M366.32,18.56c-.22,1.75-.36,3.41-3.02,2.56,.25-1.71,.28-3.49,3.02-2.56Z" style="fill:#0f0f0f;"/><path d="M345.87,3.21l4.25,.24c-1.09,.99-1.6,1.8-2.04,1.77-.86-.06-1.68-.6-2.52-.94l.31-1.07Z" style="fill:#0f0f0f;"/></svg>