<?xml version="1.0" encoding="UTF-8"?><svg xmlns="http://www.w3.org/2000/svg" viewBox="0 0 1133.14 85.44"><g id="a"/><g id="b"><g id="c"><path d="M689.69,44.94c4.36-3.64,6.54-8.78,6.54-15.42s-2.18-11.92-6.54-15.6c-4.36-3.68-10.74-5.52-19.14-5.52h-22.32V50.4h22.32c8.4,0,14.78-1.82,19.14-5.46Z" style="fill:none;"/><path d="M954.05,45c4.36-3.68,6.54-8.84,6.54-15.48s-2.18-11.92-6.54-15.6c-4.36-3.68-10.74-5.52-19.14-5.52h-22.32V50.52h22.32c8.4,0,14.78-1.84,19.14-5.52Z" style="fill:none;"/><path d="M857.69,12.78c-5.48-2.92-11.94-4.38-19.38-4.38h-24.84V77.04h24.84c7.44,0,13.9-1.46,19.38-4.38,5.48-2.92,9.74-6.96,12.78-12.12,3.04-5.16,4.56-11.1,4.56-17.82s-1.52-12.76-4.56-17.88c-3.04-5.12-7.3-9.14-12.78-12.06Z" style="fill:none;"/><polygon points="143.88 9.9 123.66 55.08 164.09 55.08 143.88 9.9" style="fill:none;"/><path d="M250.98,45c4.36-3.68,6.54-8.84,6.54-15.48s-2.18-11.92-6.54-15.6c-4.36-3.68-10.74-5.52-19.14-5.52h-22.32V50.52h22.32c8.4,0,14.78-1.84,19.14-5.52Z" style="fill:none;"/><path d="M569.09,17.82c-3.16-3.16-6.88-5.6-11.16-7.32-4.28-1.72-8.94-2.58-13.98-2.58s-9.72,.86-14.04,2.58c-4.32,1.72-8.06,4.16-11.22,7.32-3.16,3.16-5.64,6.84-7.44,11.04-1.8,4.2-2.7,8.82-2.7,13.86s.9,9.56,2.7,13.8c1.8,4.24,4.28,7.94,7.44,11.1,3.16,3.16,6.9,5.6,11.22,7.32,4.32,1.72,9,2.58,14.04,2.58s9.7-.86,13.98-2.58c4.28-1.72,8-4.16,11.16-7.32,3.16-3.16,5.62-6.84,7.38-11.04,1.76-4.2,2.64-8.82,2.64-13.86s-.88-9.66-2.64-13.86c-1.76-4.2-4.22-7.88-7.38-11.04Z" style="fill:none;"/><path d="M86.24,1.72V83.72h-6.52V13.84l-1.86,3.19-32.71,56.01h-3.05L9.38,17.41l-1.86-3.17V83.72H1V1.72H6.75L42.93,63.45l.87,1.48,.86-1.48L80.5,1.72h5.74m1-1h-7.32L43.79,62.95,7.32,.72H0V84.72H8.52V17.92l33,56.12h4.2L78.72,17.53V84.72h8.52V.72h0Z"/><path d="M143.88,9.9l20.22,45.18h-40.43l20.22-45.18m0-2.45l-.91,2.04-20.22,45.18-.63,1.41h43.52l-.63-1.41-20.22-45.18-.91-2.04h0Z"/><path d="M147.68,1.72l37.49,82h-7.15l-9.78-21.85-.26-.59h-48.17l-.26,.59-9.78,21.85h-7.04L140.2,1.72h7.48m.64-1h-8.76l-38.4,84h9.24l10.04-22.44h46.88l10.04,22.44h9.36L148.32,.72h0Z"/><path d="M232.08,1.72c6.95,0,12.99,1.12,17.95,3.33,4.91,2.19,8.75,5.38,11.39,9.47,2.64,4.1,3.98,9.14,3.98,15s-1.34,10.66-3.98,14.76c-2.64,4.09-6.47,7.28-11.39,9.47-.93,.41-1.96,.81-3.16,1.2l-1.29,.42,.79,1.11,19.41,27.24h-7.26l-18.86-26.61-.34-.48-.59,.07c-2.17,.25-4.4,.38-6.65,.38h-23.56v26.64h-6.88V1.72h30.44m0-1h-31.44V84.72h8.88v-26.64h22.56c2.37,0,4.62-.14,6.77-.39l19.15,27.03h9.72l-20.54-28.82c1.12-.37,2.22-.77,3.26-1.24,5.12-2.28,9.06-5.56,11.82-9.84,2.76-4.28,4.14-9.38,4.14-15.3s-1.38-11.26-4.14-15.54c-2.76-4.28-6.7-7.56-11.82-9.84-5.12-2.28-11.24-3.42-18.36-3.42h0Z"/><path d="M231.84,8.4c8.4,0,14.78,1.84,19.14,5.52,4.36,3.68,6.54,8.88,6.54,15.6s-2.18,11.8-6.54,15.48c-4.36,3.68-10.74,5.52-19.14,5.52h-22.32V8.4h22.32m0-1h-23.32V51.52h23.32c8.6,0,15.26-1.94,19.78-5.76,4.58-3.86,6.9-9.33,6.9-16.24s-2.32-12.5-6.89-16.36c-4.53-3.82-11.18-5.76-19.78-5.76h0Z"/><path d="M295.28,1.72V83.72h-6.88V1.72h6.88m1-1h-8.88V84.72h8.88V.72h0Z"/><path d="M356.71,1.72l37.49,82h-7.15l-9.78-21.85-.26-.59h-48.17l-.26,.59-9.78,21.85h-7.04L349.24,1.72h7.48m.64-1h-8.76l-38.4,84h9.24l10.04-22.44h46.88l10.04,22.44h9.36L357.36,.72h0Z"/><path d="M478.87,1.72V83.72h-5.84L419.34,15.98l-1.78-2.25V83.72h-6.88V1.72h5.84l53.82,67.75,1.78,2.24V1.72h6.76m1-1h-8.76V68.85L416.99,.72h-7.32V84.72h8.88V16.6l54,68.12h7.32V.72h0Z"/><path d="M543.95,1c6.16,0,11.93,1.05,17.15,3.11,5.22,2.06,9.81,5,13.65,8.73,3.84,3.73,6.87,8.18,9.01,13.23,2.14,5.05,3.22,10.66,3.22,16.65s-1.08,11.6-3.22,16.65c-2.14,5.05-5.17,9.51-9.01,13.23-3.85,3.73-8.44,6.67-13.65,8.73-5.22,2.06-10.99,3.11-17.15,3.11s-11.96-1.05-17.21-3.11c-5.25-2.06-9.86-5.01-13.71-8.78-3.85-3.77-6.88-8.22-9.02-13.24-2.14-5.01-3.22-10.59-3.22-16.59s1.08-11.58,3.22-16.59c2.14-5.01,5.17-9.47,9.02-13.24,3.85-3.77,8.44-6.72,13.65-8.78,5.22-2.06,11.03-3.11,17.27-3.11m0-1c-6.4,0-12.28,1.06-17.64,3.18-5.36,2.12-10.02,5.12-13.98,9-3.96,3.88-7.04,8.4-9.24,13.56-2.2,5.16-3.3,10.82-3.3,16.98s1.1,11.82,3.3,16.98c2.2,5.16,5.28,9.68,9.24,13.56,3.96,3.88,8.64,6.88,14.04,9,5.4,2.12,11.26,3.18,17.58,3.18s12.16-1.06,17.52-3.18c5.36-2.12,10.02-5.1,13.98-8.94,3.96-3.84,7.04-8.36,9.24-13.56,2.2-5.2,3.3-10.88,3.3-17.04s-1.1-11.84-3.3-17.04c-2.2-5.2-5.28-9.72-9.24-13.56-3.96-3.84-8.62-6.82-13.98-8.94-5.36-2.12-11.2-3.18-17.52-3.18h0Z"/><path d="M543.95,7.92c5.04,0,9.7,.86,13.98,2.58,4.28,1.72,8,4.16,11.16,7.32,3.16,3.16,5.62,6.84,7.38,11.04,1.76,4.2,2.64,8.82,2.64,13.86s-.88,9.66-2.64,13.86c-1.76,4.2-4.22,7.88-7.38,11.04-3.16,3.16-6.88,5.6-11.16,7.32-4.28,1.72-8.94,2.58-13.98,2.58s-9.72-.86-14.04-2.58c-4.32-1.72-8.06-4.16-11.22-7.32-3.16-3.16-5.64-6.86-7.44-11.1-1.8-4.24-2.7-8.84-2.7-13.8s.9-9.66,2.7-13.86c1.8-4.2,4.28-7.88,7.44-11.04,3.16-3.16,6.9-5.6,11.22-7.32,4.32-1.72,9-2.58,14.04-2.58m0-1c-5.14,0-9.99,.89-14.41,2.65-4.43,1.76-8.32,4.3-11.56,7.54-3.24,3.24-5.81,7.06-7.65,11.35-1.85,4.31-2.78,9.1-2.78,14.25s.94,9.85,2.78,14.19c1.84,4.34,4.42,8.18,7.65,11.42,3.24,3.24,7.13,5.78,11.56,7.54,4.41,1.76,9.26,2.65,14.41,2.65s9.98-.89,14.35-2.65c4.38-1.76,8.25-4.3,11.49-7.54,3.24-3.24,5.79-7.06,7.59-11.36,1.8-4.31,2.72-9.1,2.72-14.25s-.91-9.94-2.72-14.25c-1.8-4.3-4.36-8.12-7.59-11.36-3.24-3.24-7.11-5.78-11.49-7.54-4.38-1.76-9.21-2.65-14.35-2.65h0Z"/><path d="M670.79,1.72c6.95,0,12.99,1.12,17.95,3.33,4.91,2.19,8.75,5.38,11.39,9.47,2.64,4.1,3.98,9.14,3.98,15s-1.34,10.66-3.98,14.76c-2.64,4.1-6.47,7.3-11.39,9.53-4.96,2.25-11,3.39-17.95,3.39h-23.56v26.52h-6.88V1.72h30.44m0-1h-31.44V84.72h8.88v-26.52h22.56c7.12,0,13.24-1.16,18.36-3.48,5.12-2.32,9.06-5.62,11.82-9.9,2.76-4.28,4.14-9.38,4.14-15.3s-1.38-11.26-4.14-15.54c-2.76-4.28-6.7-7.56-11.82-9.84-5.12-2.28-11.24-3.42-18.36-3.42h0Z"/><path d="M670.55,8.4c8.4,0,14.78,1.84,19.14,5.52,4.36,3.68,6.54,8.88,6.54,15.6s-2.18,11.78-6.54,15.42c-4.36,3.64-10.74,5.46-19.14,5.46h-22.32V8.4h22.32m0-1h-23.32V51.4h23.32c8.6,0,15.26-1.92,19.78-5.69,4.58-3.82,6.9-9.27,6.9-16.19s-2.32-12.5-6.89-16.36c-4.53-3.82-11.18-5.76-19.78-5.76h0Z"/><path d="M780.91,1.72V7.4h-48.72v31.88h43.44v5.56h-43.44v33.2h50.52v5.68h-57.4V1.72h55.6m1-1h-57.6V84.72h59.4v-7.68h-50.52v-31.2h43.44v-7.56h-43.44V8.4h48.72V.72h0Z"/><path d="M838.79,1.72c8.75,0,16.53,1.76,23.11,5.22,6.56,3.46,11.74,8.32,15.39,14.45,3.65,6.14,5.5,13.31,5.5,21.33s-1.85,15.19-5.5,21.33c-3.65,6.13-8.83,10.99-15.39,14.45-6.58,3.47-14.36,5.22-23.11,5.22h-33.2V1.72h33.2m-26.32,76.32h25.84c7.57,0,14.25-1.51,19.85-4.5,5.62-2.99,10.05-7.2,13.17-12.5,3.12-5.29,4.7-11.46,4.7-18.33s-1.58-13.14-4.7-18.39c-3.12-5.25-7.55-9.44-13.17-12.43-5.6-2.98-12.28-4.5-19.85-4.5h-25.84V78.04M838.79,.72h-34.2V84.72h34.2c8.96,0,16.82-1.78,23.58-5.34,6.76-3.56,12.02-8.5,15.78-14.82,3.76-6.32,5.64-13.6,5.64-21.84s-1.88-15.52-5.64-21.84c-3.76-6.32-9.02-11.26-15.78-14.82-6.76-3.56-14.62-5.34-23.58-5.34h0Zm-25.32,76.32V8.4h24.84c7.44,0,13.9,1.46,19.38,4.38,5.48,2.92,9.74,6.94,12.78,12.06,3.04,5.12,4.56,11.08,4.56,17.88s-1.52,12.66-4.56,17.82c-3.04,5.16-7.3,9.2-12.78,12.12-5.48,2.92-11.94,4.38-19.38,4.38h-24.84Z"/><path d="M934.91,8.4c8.4,0,14.78,1.84,19.14,5.52,4.36,3.68,6.54,8.88,6.54,15.6s-2.18,11.8-6.54,15.48c-4.36,3.68-10.74,5.52-19.14,5.52h-22.32V8.4h22.32m0-1h-23.32V51.52h23.32c8.6,0,15.26-1.94,19.78-5.76,4.58-3.86,6.9-9.33,6.9-16.24s-2.32-12.5-6.9-16.36c-4.53-3.82-11.18-5.76-19.78-5.76h0Z"/><path d="M935.15,1.72c6.95,0,12.99,1.12,17.95,3.33,4.91,2.19,8.75,5.38,11.39,9.47,2.64,4.1,3.98,9.14,3.98,15s-1.34,10.66-3.98,14.76c-2.64,4.09-6.47,7.28-11.39,9.47-.93,.41-1.96,.81-3.17,1.2l-1.29,.42,.79,1.11,19.41,27.24h-7.26l-18.86-26.61-.34-.48-.59,.07c-2.17,.25-4.4,.38-6.65,.38h-23.56v26.64h-6.88V1.72h30.44m0-1h-31.44V84.72h8.88v-26.64h22.56c2.37,0,4.62-.14,6.77-.39l19.15,27.03h9.72l-20.54-28.82c1.12-.37,2.22-.77,3.26-1.24,5.12-2.28,9.06-5.56,11.82-9.84,2.76-4.28,4.14-9.38,4.14-15.3s-1.38-11.26-4.14-15.54c-2.76-4.28-6.7-7.56-11.82-9.84-5.12-2.28-11.24-3.42-18.36-3.42h0Z"/><path d="M998.35,1.72V83.72h-6.88V1.72h6.88m1-1h-8.88V84.72h8.88V.72h0Z"/><path d="M1095.91,1.72V83.72h-5.84l-53.7-67.74-1.78-2.25V83.72h-6.88V1.72h5.84l53.82,67.75,1.78,2.24V1.72h6.76m1-1h-8.76V68.85L1034.03,.72h-7.32V84.72h8.88V16.6l54,68.12h7.32V.72h0Z"/><path d="M1132.14,1.72V83.72h-6.88V1.72h6.88m1-1h-8.88V84.72h8.88V.72h0Z"/><path d="M352.92,9.9l20.22,45.18h-40.43l20.22-45.18m0-2.45l-.91,2.04-20.22,45.18-.63,1.41h43.52l-.63-1.41-20.22-45.18-.91-2.04h0Z"/></g></g></svg>